<svg version="1.1" viewBox="0.0 0.0 1152.0 864.0" fill="none" stroke="none" stroke-linecap="square" stroke-miterlimit="10" xmlns:xlink="http://www.w3.org/1999/xlink" xmlns="http://www.w3.org/2000/svg"><clipPath id="p.0"><path d="m0 0l1152.0 0l0 864.0l-1152.0 0l0 -864.0z" clip-rule="nonzero"/></clipPath><g clip-path="url(#p.0)"><path fill="#000000" fill-opacity="0.0" d="m0 0l1152.0 0l0 864.0l-1152.0 0z" fill-rule="evenodd"/><path fill="#4a86e8" d="m315.0 277.0l42.0 -83.999954l108.0 0l42.0 83.999954l-42.0 83.99997l-108.0 0z" fill-rule="evenodd"/><path stroke="#ffffff" stroke-width="1.0" stroke-linejoin="round" stroke-linecap="butt" d="m315.0 277.0l42.0 -83.999954l108.0 0l42.0 83.999954l-42.0 83.99997l-108.0 0z" fill-rule="evenodd"/><path fill="#4a86e8" d="m480.0 189.98425l42.0 -83.99996l108.0 0l42.0 83.99996l-42.0 83.99997l-108.0 0z" fill-rule="evenodd"/><path stroke="#ffffff" stroke-width="1.0" stroke-linejoin="round" stroke-linecap="butt" d="m480.0 189.98425l42.0 -83.99996l108.0 0l42.0 83.99996l-42.0 83.99997l-108.0 0z" fill-rule="evenodd"/><path fill="#4a86e8" d="m315.0 465.9987l42.0 -83.99997l108.0 0l42.0 83.99997l-42.0 83.99997l-108.0 0z" fill-rule="evenodd"/><path stroke="#ffffff" stroke-width="1.0" stroke-linejoin="round" stroke-linecap="butt" d="m315.0 465.9987l42.0 -83.99997l108.0 0l42.0 83.99997l-42.0 83.99997l-108.0 0z" fill-rule="evenodd"/><path fill="#4a86e8" d="m647.0 277.0l42.0 -83.999954l108.0 0l42.0 83.999954l-42.0 83.99997l-108.0 0z" fill-rule="evenodd"/><path stroke="#ffffff" stroke-width="1.0" stroke-linejoin="round" stroke-linecap="butt" d="m647.0 277.0l42.0 -83.999954l108.0 0l42.0 83.999954l-42.0 83.99997l-108.0 0z" fill-rule="evenodd"/><path fill="#4a86e8" d="m480.0 558.01575l42.0 -83.99997l108.0 0l42.0 83.99997l-42.0 83.99994l-108.0 0z" fill-rule="evenodd"/><path stroke="#ffffff" stroke-width="1.0" stroke-linejoin="round" stroke-linecap="butt" d="m480.0 558.01575l42.0 -83.99997l108.0 0l42.0 83.99997l-42.0 83.99994l-108.0 0z" fill-rule="evenodd"/><path fill="#4a86e8" d="m647.0 466.0l42.0 -83.99997l108.0 0l42.0 83.99997l-42.0 83.99994l-108.0 0z" fill-rule="evenodd"/><path stroke="#ffffff" stroke-width="1.0" stroke-linejoin="round" stroke-linecap="butt" d="m647.0 466.0l42.0 -83.99997l108.0 0l42.0 83.99997l-42.0 83.99994l-108.0 0z" fill-rule="evenodd"/></g></svg>